<svg width="215.765" height="215.765" xmlns="http://www.w3.org/2000/svg" class="svgPink">

 <g>
  <title>background</title>
  <rect fill="none" id="canvas_background" height="402" width="582" y="-1" x="-1"/>
 </g>
 <g>
  <title>Layer 1</title>
  <g id="svg_1" transform="matrix(-0.979512,0,0,0.979512,213.555,2.21029) ">
   <g id="XMLID_40_">
    <path stroke="#ffffff" fill="#ea526f" class="active-path" d="m171.288,83.634c-1.314,-1.125 -2.594,-2.31 -3.752,-3.592c-2.815,-3.116 -5.342,-6.388 -5.864,-10.8c-0.155,-1.308 -0.035,-2.167 1.111,-2.981c1.231,-0.874 2.178,-2.081 2.26,-3.756c-0.894,0.634 -1.677,1.364 -2.634,1.843c-0.283,0.142 -0.579,0.43 -0.903,0.231c-0.346,-0.213 -0.157,-0.581 -0.114,-0.897c0.775,-5.791 0.693,-11.567 -0.339,-17.322c-0.121,-0.676 -0.025,-1.279 0.236,-1.909c1.648,-3.982 3.194,-8.008 4.937,-11.947c0.659,-1.49 0.395,-2.477 -0.66,-3.598c-4.027,-4.278 -8.382,-8.162 -13.195,-11.543c-9.696,-6.812 -20.323,-11.549 -31.784,-14.486c-5.276,-1.352 -10.623,-2.315 -16.051,-2.631c-3.923,-0.229 -7.888,-0.381 -11.794,-0.07c-3.618,0.289 -7.231,0.956 -10.766,1.938c-6.836,1.899 -13.042,4.926 -18.219,9.863c-2.876,2.743 -5.042,6.031 -7.063,9.413c-0.277,0.463 -0.541,0.703 -0.834,0.738c-0.039,0.412 -0.177,0.859 -0.442,1.347c-0.02,0.038 -0.043,0.072 -0.065,0.107c-0.042,0.174 -0.12,0.36 -0.229,0.566c-3.808,7.2 -6.551,14.792 -8.27,22.753c-0.103,0.477 -0.212,0.924 -0.574,1.119c0.007,0.219 -0.03,0.439 -0.111,0.64c0.218,0.394 0.12,0.869 0.015,1.364c-1.949,9.143 -2.736,18.425 -3.077,27.739c-0.261,7.112 0.014,14.223 0.394,21.337c0.702,13.158 2.375,26.192 4.535,39.174c1.368,8.223 3.051,16.386 4.925,24.51c1.41,6.115 2.941,12.198 4.654,18.237c0.315,1.109 0.651,1.682 1.901,0.979c1.385,-0.78 2.841,-1.439 4.287,-2.105c7.161,-3.299 14.367,-3.424 21.629,-0.312c4.696,2.012 8.802,4.962 12.838,8.019c7.055,5.343 13.829,11.063 21.372,15.747c9.901,6.149 20.512,10.424 32.053,12.278c0.438,0.07 0.996,0.33 1.318,-0.1c0.282,-0.376 -0.117,-0.795 -0.281,-1.167c-3.828,-8.702 -7.7,-17.385 -11.49,-26.104c-4.443,-10.222 -8.899,-20.439 -13.026,-30.796c-1.434,-3.6 -1.992,-7.29 -1.784,-11.134c0.228,-4.215 0.828,-8.381 1.579,-12.528c0.542,-2.994 1.049,-6.02 2.705,-8.648c3.365,-5.337 8.709,-6.715 14.477,-6.682c3.909,0.022 7.808,0.886 11.723,1.006c5.762,0.177 8.238,-2.963 7.039,-8.596c-0.46,-2.163 -0.297,-4.069 1.422,-5.676c0.702,-0.656 1.259,-1.584 0.746,-2.525c-0.795,-1.459 -0.116,-2.401 0.749,-3.473c1.473,-1.825 1.426,-1.863 0.013,-3.744c-1.237,-1.647 -0.792,-3.265 1.109,-4.074c1.436,-0.611 2.767,-1.39 3.784,-2.605c1.488,-1.781 1.253,-3.654 -0.49,-5.147zm-66.235,-9.902c1.69,-0.807 3.459,-1.402 5.275,-1.908c-1.379,0.964 -2.959,1.598 -4.277,2.667c-5.387,4.368 -6.758,10.458 -3.756,16.726c1.823,3.807 4.814,6.635 7.815,9.465c3.167,2.986 6.651,5.627 9.631,8.814c2.777,2.97 5.187,6.168 6.036,10.275c0.066,0.32 0.123,0.642 0.165,0.965c0.016,0.119 -0.021,0.245 -0.065,0.649c-1.044,-2.965 -2.481,-5.395 -4.355,-7.59c-2.469,-2.89 -5.629,-4.919 -8.651,-7.116c-4.095,-2.977 -8.143,-6 -11.638,-9.695c-1.685,-1.781 -3.136,-3.726 -4.225,-5.924c-2.703,-5.451 -1.511,-10.65 3.265,-14.398c1.482,-1.162 3.084,-2.121 4.78,-2.93zm8.379,62.719c0.071,0.492 0.626,0.685 1.102,0.721c0.994,0.074 1.821,-0.373 2.555,-0.986c3.12,-2.606 2.495,-9.145 -1.05,-11.074c-2.109,-1.147 -4.318,-0.767 -5.595,1.158c-2.001,3.018 -2.714,6.436 -2.013,9.941c1.056,5.281 5.895,6.867 10.006,3.364c5.898,-5.026 5.95,-15.768 -2.154,-19.754c-2.604,-1.28 -3.961,-1.529 -9.828,-1.508c-2.539,0.133 -5.523,-0.184 -8.388,-1.449c-5.405,-2.387 -5.345,-8.253 -3.069,-11.279c1.382,-1.838 4.135,-2.627 6.341,-1.921c2.647,0.847 4.3,2.857 4.421,5.375c0.16,3.346 -0.892,4.957 -3.579,5.407c-1.24,0.208 -2.322,-0.167 -3.142,-1.137c-0.86,-1.017 -1.01,-2.216 -0.601,-3.435c0.331,-0.984 1.06,-1.642 2.159,-1.268c1.178,0.401 1.01,1.404 0.8,2.361c-0.082,0.375 -0.73,0.733 -0.268,1.082c0.512,0.387 1.106,0.044 1.513,-0.356c0.746,-0.733 1.115,-1.621 0.752,-2.678c-0.426,-1.239 -1.33,-1.898 -2.614,-2.013c-1.555,-0.139 -3.159,0.845 -3.854,2.321c-0.708,1.502 -0.456,3.196 0.71,4.43c1.868,1.977 4.371,2.202 6.857,2.34c3.355,0.187 6.721,-0.228 10.07,0.55c8.357,1.94 11.685,9.585 10.995,16.199c-0.292,2.797 -1.06,5.445 -2.676,7.751c-3.503,5 -10.828,5.509 -15.613,1.24c-3.309,-2.953 -4.058,-6.503 -2.689,-10.565c1.028,-3.051 2.851,-5.568 5.569,-7.376c4.123,-2.742 9.35,-0.676 10.474,4.139c0.951,4.072 -0.485,8.056 -3.614,10.027c-1.852,1.167 -3.899,1.051 -4.986,-0.282c-1.366,-1.675 -1.471,-4.749 -0.201,-6.166c0.722,-0.805 1.65,-1.162 2.661,-0.779c1.184,0.448 1.404,1.521 1.38,2.668c-0.024,1.118 -0.388,2.007 -1.516,2.442c-0.334,0.127 -1.011,-0.161 -0.915,0.51zm-29.799,-39.936c1.656,-0.599 2.721,-2.567 2.475,-4.602c-0.175,-1.448 -1.673,-2.873 -3.232,-3.106c-0.81,-0.121 -1.467,0.193 -2.087,0.644c-1.63,1.185 -2.87,4.616 -2.382,6.573c0.602,2.416 2.629,3.622 5.021,2.987c2.814,-0.747 4.855,-3.3 5.194,-6.5c0.249,-2.349 -1.473,-5.213 -3.923,-6.507c-1.721,-0.909 -3.548,-1.371 -5.501,-1.533c-2.925,-0.244 -5.779,-0.828 -7.901,-3.125c-1.239,-1.341 -1.187,-3.814 0.037,-5.334c1.1,-1.365 3.661,-1.728 5.435,-0.769c1.704,0.921 2.468,2.718 1.913,4.499c-0.515,1.655 -2.475,2.437 -3.981,1.587c-0.416,-0.235 -0.776,-0.544 -0.975,-0.982c-0.361,-0.794 -0.327,-1.57 0.329,-2.196c0.415,-0.396 0.974,-0.431 1.424,-0.087c0.775,0.593 0.211,1.256 -0.059,1.985c1.008,0.16 1.54,-0.249 1.736,-1.008c0.217,-0.843 -0.225,-1.444 -0.952,-1.839c-1.105,-0.6 -2.63,-0.224 -3.393,0.823c-0.739,1.014 -0.614,2.181 0.424,3.139c1.304,1.204 2.984,1.509 4.655,1.761c2.172,0.327 4.367,0.494 6.449,1.303c3.421,1.329 5.57,3.625 6.081,7.38c0.423,3.106 -1.982,7.685 -4.876,8.995c-2.889,1.309 -6.601,0.315 -8.89,-2.332c-1.54,-1.781 -1.626,-3.793 -0.72,-5.777c1.032,-2.26 2.845,-3.825 5.255,-4.563c1.921,-0.588 3.64,-0.08 5.012,1.346c1.487,1.545 1.396,3.4 0.703,5.253c-0.686,1.835 -2.128,2.836 -4.01,3.112c-1.034,0.152 -1.996,-0.247 -2.415,-1.299c-0.413,-1.036 -0.454,-2.12 0.295,-3.06c0.54,-0.677 1.309,-0.668 2.064,-0.484c0.577,0.141 0.813,0.641 0.87,1.164c0.084,0.769 -0.276,1.35 -0.954,1.731c-0.269,0.151 -0.679,0.042 -0.842,0.509c0.473,0.606 1.068,0.548 1.721,0.312zm6.822,3.169c1.556,-1.697 3.46,-2.909 5.69,-3.648c-4.209,4.232 -7.183,8.961 -6.3,15.215c0.917,6.492 5.259,9.827 11.09,11.719c-3.837,-0.482 -7.508,-1.316 -10.623,-3.727c-1.86,-1.44 -3.095,-3.299 -3.399,-5.626c-0.667,-5.096 -0.123,-9.936 3.542,-13.933zm17.329,11.806c-0.018,-1.527 0.804,-2.647 1.918,-2.616c1.08,0.03 1.905,1.112 1.923,2.52c0.019,1.523 -0.807,2.625 -1.949,2.6c-1.108,-0.025 -1.875,-1.04 -1.892,-2.504zm-39.643,4.038l-5.086,-10.171c-4.917,-11.261 -9.397,-22.675 -12.114,-34.7c-1.314,-5.815 -2.142,-11.698 -1.892,-17.684c0.417,-9.968 3.871,-18.513 11.71,-25.024c5.986,-4.972 14.764,-5.998 21.04,-2.398c5.922,3.397 8.983,10.572 7.6,17.809c-1.172,6.132 -6.216,10.672 -13.024,11.654c-3.99,0.576 -7.602,-0.183 -10.208,-3.526c-2.497,-3.204 -2.555,-8.645 -0.277,-11.769c1.804,-2.475 6.139,-3.949 9.069,-3.083c2.554,0.754 4.105,3.074 3.713,5.554c-0.425,2.689 -2.981,4.594 -5.947,4.47c-2.279,-0.095 -3.993,-1.142 -5.328,-3.33c-0.65,4.056 0.919,6.494 4.524,7.113c2.357,0.405 4.777,0.409 7.087,-0.394c3.433,-1.193 5.037,-3.839 5.606,-7.271c0.982,-5.923 -3.101,-12.597 -8.804,-14.179c-3.546,-0.984 -6.847,0.006 -10.019,1.621c-7.261,3.698 -10.637,9.97 -11.784,17.727c-1.789,12.098 0.342,23.772 3.862,35.286c2.336,7.64 5.514,14.932 9.276,21.971l1.84,3.455c6.071,10.667 13.327,20.46 21.571,29.548c5.801,6.395 12.345,11.998 18.619,17.895c10.485,9.856 19.59,20.784 25.157,34.268c1.847,4.474 3.211,9.087 3.454,13.967c0.004,0.073 -0.033,0.148 -0.06,0.258c-3.693,-14.902 -12.798,-26.279 -23.603,-36.533c-7.674,-7.283 -15.506,-14.407 -22.795,-22.081c-8.469,-8.918 -16.174,-18.441 -22.395,-29.104m-12.083,0.845c-1.953,-3.422 -2.84,-7.196 -3.511,-11.018c-0.594,-3.384 -0.426,-6.814 -0.326,-10.232c0.005,-0.169 0.076,-0.335 0.123,-0.531c0.501,0.196 0.456,0.613 0.557,0.945c0.77,2.505 1.441,5.045 2.334,7.505l7.888,17.163c2.922,5.874 7.02,11.025 11.56,15.787c0.173,0.182 0.482,0.308 0.379,0.782c-2.232,-1.256 -4.254,-2.726 -6.213,-4.297c-5.14,-4.121 -9.291,-9.057 -12.329,-14.912m-5.135,9.041c0.049,-1.79 1.146,-3.147 2.54,-3.143c1.423,0.005 2.612,1.509 2.585,3.271c-0.028,1.843 -1.157,3.313 -2.551,3.322c-1.411,0.009 -2.624,-1.617 -2.574,-3.45zm30.776,37.893c-1.79,1.606 -4.432,0.79 -5.052,-1.62c-0.398,-1.548 -0.375,-3.137 0.498,-4.601c0.871,-1.462 2.107,-2.126 3.585,-1.872c1.218,0.21 2.243,1.337 2.548,2.846c0.082,0.408 0.078,0.833 0.087,0.945c0.042,1.887 -0.496,3.252 -1.666,4.302zm6.382,3.51c-1.028,0.039 -1.902,-1.045 -1.895,-2.35c0.01,-1.85 0.872,-3.054 2.188,-3.056c1.154,-0.002 1.991,1.034 1.969,2.436c-0.023,1.501 -1.109,2.927 -2.262,2.97zm36.094,20.379c-4.904,-6.205 -10.661,-11.555 -16.687,-16.628c-9.187,-7.732 -18.953,-14.68 -29.016,-21.213c-2.832,-1.839 -5.795,-3.457 -9.123,-4.26c-6.907,-1.665 -11.466,2.874 -9.933,9.825c1.322,5.997 6.53,7.141 10.521,5.656c1.184,-0.441 2.088,-1.199 1.977,-2.968c-1.264,1.099 -2.252,2.019 -3.767,1.958c-1.77,-0.072 -3.103,-0.799 -3.753,-2.448c-0.647,-1.641 -0.429,-3.235 0.8,-4.579c1.218,-1.333 2.756,-1.302 4.286,-0.767c3.154,1.102 5.266,5.177 4.474,8.482c-0.79,3.296 -4.052,5.435 -7.559,5.165c-5.973,-0.459 -13.107,-6.435 -11.936,-14.669c0.138,-0.971 0.188,-1.959 0.381,-2.918c1.006,-5 4.27,-7.812 9.378,-8.058c4.196,-0.202 8.128,0.799 11.6,3.139c10.963,7.386 21.557,15.267 31.375,24.142c6.089,5.504 11.848,11.327 16.651,18.025c2.107,2.938 3.975,6.012 5.209,9.448c-1.427,-2.58 -3.052,-5.022 -4.878,-7.332zm7.521,-11.402c0.13,0.351 0.26,0.702 0.387,1.054c0.061,0.169 0.114,0.341 -0.014,0.612c-0.884,-1.541 -1.755,-3.09 -2.654,-4.623c-2.932,-4.995 -6.478,-9.485 -10.609,-13.569c-13.504,-13.349 -26.164,-27.462 -37.757,-42.509c-5.638,-7.318 -10.992,-14.837 -14.559,-23.451c-1.965,-4.745 -3.403,-9.653 -3.675,-14.789c-0.668,-12.629 5.648,-21.573 18.245,-25.698c4.369,-1.43 8.737,-1.514 12.873,1.007c5.053,3.079 7.712,10.389 5.263,15.767c-3.225,7.083 -13.141,11.032 -20.015,3.711c-2.026,-2.157 -2.616,-5.779 -1.424,-8.237c1.149,-2.369 3.934,-3.944 6.712,-3.794c2.138,0.115 4.082,1.951 4.234,3.999c0.157,2.126 -1.175,3.832 -3.296,4.219c-1.02,0.186 -1.806,-0.049 -3.924,-1.213c1.258,3.526 4.764,5.287 8.083,4.214c3.438,-1.111 6.492,-4.818 6.606,-8.017c0.156,-4.41 -3.109,-8.112 -7.886,-8.939c-7.402,-1.282 -15.896,3.111 -19.593,10.132c-2.767,5.256 -3.042,10.829 -2.05,16.543c1.576,9.076 5.639,17.123 10.446,24.838c5.565,8.933 12.152,17.083 19.152,24.926c6.211,6.959 12.956,13.399 19.344,20.182c6.61,7.02 12.689,14.428 16.111,23.635zm-9.379,-70.288c-2.81,-3.45 -6.528,-5.883 -9.796,-8.819c-2.897,-2.603 -5.768,-5.225 -7.56,-8.777c-3.888,-7.706 0.44,-16.356 8.973,-17.936c7.048,-1.305 14.075,4.609 13.856,11.661c-0.174,5.607 -5.549,10.601 -10.975,10.196c-3.329,-0.248 -6.652,-3.651 -6.598,-6.757c0.031,-1.787 1.148,-3.241 2.864,-3.729c1.649,-0.469 3.523,0.248 4.412,1.69c0.946,1.533 0.752,3.503 -0.422,4.815c-0.392,0.438 -1.02,0.649 -1.281,1.35c1.146,0.369 2.233,0.352 3.28,-0.116c3.02,-1.348 5.193,-5.63 4.558,-8.922c-0.693,-3.6 -3.685,-6.456 -7.31,-6.485c-3.987,-0.032 -7.082,1.952 -9.237,5.25c-1.941,2.972 -1.159,5.941 0.462,8.755c2.331,4.047 5.76,7.116 9.295,10.053c4.732,3.931 8.564,9.389 10.021,14.626c-1.313,-2.42 -2.802,-4.719 -4.542,-6.855zm5.688,-4.718c0.419,2.459 0.839,4.777 1.815,6.94c0.964,2.138 2.105,4.16 3.845,5.79c-5.019,-2.361 -7.103,-7.018 -5.66,-12.73zm20.984,-39.127c-4.683,10.325 -9.29,20.684 -12.292,31.662c-0.77,2.814 -1.32,5.675 -0.997,8.604c0.357,3.244 1.376,6.16 4.653,7.637c1.842,0.83 4.129,0.294 5.391,-1.184c1.556,-1.823 1.074,-3.959 -1.196,-5.065c-0.257,0.521 0.137,0.976 0.15,1.455c0.044,1.59 -0.594,2.607 -2.071,3.119c-1.166,0.405 -2.966,-0.131 -3.682,-1.097c-1.601,-2.158 -0.393,-5.472 2.202,-6.041c4.637,-1.015 8.339,2.946 7.004,7.495c-1.543,5.258 -7.74,6.76 -11.814,2.805c-2.338,-2.27 -3.493,-5.16 -3.923,-8.364c-0.56,-4.176 0.244,-8.205 1.336,-12.192c2.369,-8.648 6.339,-16.608 10.63,-24.421c3.112,-5.666 6.47,-11.183 10.262,-16.472c-1.888,4.018 -3.82,8.017 -5.653,12.059z" id="XMLID_216_"/>
   </g>
  </g>
 </g>
</svg>