<svg width="512" height="512" xmlns="http://www.w3.org/2000/svg">

 <g>
  <title>background</title>
  <rect fill="none" id="canvas_background" height="402" width="582" y="-1" x="-1"/>
 </g>
 <g>
  <title>Layer 1</title>
  <path id="svg_1" fill="#ea526f" d="m510.569,264.533c0.962,2.611 1.432,5.291 1.432,7.926c0,9.311 -5.727,18.084 -14.969,21.509l-284.908,105.402c-2.588,0.962 -5.28,1.432 -7.96,1.432c-3.264,0 -6.517,-0.699 -9.563,-2.107c-5.555,-2.554 -9.792,-7.124 -11.911,-12.862l-58.434,-157.938c-2.119,-5.738 -1.878,-11.957 0.676,-17.512c2.554,-5.566 7.124,-9.792 12.862,-11.923l284.918,-105.403c5.738,-2.119 11.957,-1.878 17.512,0.676c5.566,2.554 9.792,7.124 11.911,12.862l58.434,157.938zm-25.598,-3.207l-50.703,-137.013l-69.463,99.321l120.166,37.692zm-260.111,108.907l243.539,-90.101l-117.371,-36.81l-18.13,25.941c-2.176,3.104 -5.704,4.89 -9.392,4.89c-0.939,0 -1.901,-0.126 -2.852,-0.366l-30.637,-7.88l-65.157,104.326zm93.812,-120.612l88.372,-126.339l-237.697,87.937l149.325,38.402zm-118.631,117.107l66.703,-106.811l-117.383,-30.19l50.68,137.001z"/>
  <g fill="#d68695" id="svg_2">
   <polygon id="svg_3" fill="#d68695" points="433.26800537109375,124.31199645996094 483.97100830078125,261.32598876953125 363.80499267578125,223.63400268554688 "/>
   <path id="svg_4" fill="#d68695" d="m467.399,280.132l-243.539,90.101l65.157,-104.326l30.637,7.88c0.951,0.241 1.913,0.367 2.852,0.367c3.688,0 7.215,-1.787 9.392,-4.89l18.13,-25.941l117.371,36.809z"/>
  </g>
  <polygon id="svg_5" fill="#d68695" points="407.044,123.282 318.672,249.621 169.347,211.218 "/>
  <polygon id="svg_6" fill="#d68695" points="266.744,259.917 200.041,366.728 149.361,229.727 "/>
  <g id="svg_7">
   <path id="svg_8" fill="#ea526f" d="m133.441,389.97c2.199,5.933 -0.836,12.518 -6.769,14.717l-43.155,15.966c-1.317,0.481 -2.657,0.722 -3.974,0.722c-4.661,0 -9.036,-2.863 -10.743,-7.49c-2.199,-5.933 0.836,-12.518 6.769,-14.717l43.155,-15.966c5.933,-2.188 12.518,0.836 14.717,6.768z"/>
   <path id="svg_9" fill="#ea526f" d="m75.019,283.64c2.199,5.933 -0.836,12.53 -6.757,14.717l-26.651,9.861c-1.306,0.481 -2.646,0.71 -3.974,0.71c-4.65,0 -9.025,-2.852 -10.743,-7.479c-2.188,-5.933 0.836,-12.518 6.769,-14.717l26.651,-9.861c5.921,-2.187 12.518,0.836 14.705,6.769z"/>
   <path id="svg_10" fill="#ea526f" d="m42,370.408c2.188,5.933 -0.836,12.518 -6.769,14.706l-19.802,7.33c-1.306,0.481 -2.646,0.71 -3.974,0.71c-4.65,0 -9.025,-2.852 -10.743,-7.479c-2.188,-5.933 0.836,-12.518 6.769,-14.717l19.802,-7.319c5.932,-2.198 12.518,0.837 14.717,6.769z"/>
  </g>
  <g id="svg_11"/>
  <g id="svg_12"/>
  <g id="svg_13"/>
  <g id="svg_14"/>
  <g id="svg_15"/>
  <g id="svg_16"/>
  <g id="svg_17"/>
  <g id="svg_18"/>
  <g id="svg_19"/>
  <g id="svg_20"/>
  <g id="svg_21"/>
  <g id="svg_22"/>
  <g id="svg_23"/>
  <g id="svg_24"/>
  <g id="svg_25"/>
 </g>
</svg>